<?xml version="1.0" standalone="no"?>
<!DOCTYPE svg PUBLIC "-//W3C//DTD SVG 20010904//EN"
 "http://www.w3.org/TR/2001/REC-SVG-20010904/DTD/svg10.dtd">
<svg version="1.0" xmlns="http://www.w3.org/2000/svg"
 width="400.000000pt" height="400.000000pt" viewBox="0 0 400.000000 400.000000"
 preserveAspectRatio="xMidYMid meet">
<metadata>
Created by potrace 1.11, written by Peter Selinger 2001-2013
</metadata>
<g transform="translate(0.000000,400.000000) scale(0.100000,-0.100000)"
fill="#000000" stroke="none">
<path d="M543 3986 c-18 -8 -42 -30 -53 -48 -19 -31 -20 -50 -20 -280 0 -232
-1 -248 -18 -248 -40 0 -109 -57 -136 -112 l-26 -54 2 -1239 3 -1240 27 -42
c15 -23 49 -54 75 -70 l48 -28 606 -2 c422 -1 617 1 642 9 49 15 103 61 129
111 l22 42 0 1235 0 1235 -21 41 c-24 44 -71 89 -112 107 -18 7 -182 11 -501
13 l-475 1 -1 246 c0 213 -2 248 -17 271 -37 56 -114 79 -174 52z m934 -889
c11 -4 29 -20 39 -34 15 -24 17 -64 17 -419 1 -299 -2 -399 -12 -417 -28 -53
-35 -53 -458 -53 -379 1 -393 2 -419 22 -16 11 -31 32 -35 47 -10 37 -8 777 2
804 5 13 22 31 38 41 26 16 62 17 417 17 214 -1 399 -4 411 -8z m-220 -1395
c39 -21 41 -73 5 -103 -20 -15 -44 -17 -203 -16 -166 2 -182 4 -195 21 -30 42
-9 98 40 107 49 9 333 2 353 -9z m150 -327 c27 -30 24 -59 -8 -87 -17 -14 -54
-16 -329 -16 -294 0 -311 1 -335 19 -38 31 -30 81 17 105 9 5 155 9 324 8
l308 -1 23 -28z m-137 -307 c25 -27 25 -48 0 -80 l-20 -26 -179 0 c-158 0
-183 2 -201 18 -24 21 -26 67 -3 92 14 16 35 18 199 18 176 0 184 -1 204 -22z"/>
<path d="M2396 3357 c-57 -33 -60 -46 -61 -317 -1 -232 -2 -245 -20 -249 -47
-9 -109 -61 -138 -116 l-21 -40 -1 -1224 c0 -1343 -3 -1276 59 -1341 64 -68
26 -65 708 -67 l617 -2 53 27 c57 29 92 72 108 133 7 25 9 456 8 1267 l-3
1229 -30 39 c-34 46 -56 63 -104 85 -31 13 -100 15 -499 15 -255 -1 -466 3
-469 7 -3 4 -5 110 -5 234 0 132 -5 239 -11 257 -26 77 -115 106 -191 63z
m951 -885 c49 -27 50 -39 49 -464 l-1 -398 -28 -27 -27 -28 -393 -1 c-215 0
-404 4 -419 9 -15 4 -35 21 -44 35 -16 25 -18 62 -18 419 0 417 0 424 49 454
33 19 797 20 832 1z m-214 -1399 c23 -21 22 -68 -2 -92 -18 -18 -35 -19 -197
-19 -172 1 -178 1 -201 24 -26 26 -29 52 -9 80 12 15 30 20 103 24 149 8 286
1 306 -17z m60 -292 c71 -1 103 -26 93 -73 -11 -57 -13 -57 -352 -58 -286 0
-314 1 -334 18 -38 30 -25 93 22 111 14 5 148 5 571 2z m-61 -328 c10 -9 18
-30 18 -49 0 -57 -20 -63 -222 -63 l-177 -1 -20 26 c-26 34 -26 54 -1 82 20
21 28 22 202 22 155 0 184 -2 200 -17z"/>
</g>
</svg>
