<svg xmlns="http://www.w3.org/2000/svg" viewBox="0 0 165.43 170.96"><defs><style>.cls-1{fill:#fff;}</style></defs><title>bathroom</title><g id="Layer_2" data-name="Layer 2"><g id="Layer_1-2" data-name="Layer 1"><path class="cls-1" d="M145.82,36.45h-28A19.62,19.62,0,0,0,98.19,56V98.1a11.2,11.2,0,0,0,11.19,11.19h2.83v50.48a11.18,11.18,0,0,0,19.6,7.37,11.18,11.18,0,0,0,19.6-7.37V109.28h2.83a11.2,11.2,0,0,0,11.19-11.19V56A19.63,19.63,0,0,0,145.82,36.45Zm14,61.65a5.64,5.64,0,0,1-5.63,5.63h-2.82V58.85h-5.56V159.77a5.64,5.64,0,0,1-11.27.09V98.1H129v61.76a5.63,5.63,0,0,1-11.26-.09V58.85H112.2v44.88h-2.82a5.64,5.64,0,0,1-5.63-5.64V56a14.05,14.05,0,0,1,14-14h28a14.06,14.06,0,0,1,14.05,14V98.1Z"/><path class="cls-1" d="M131.81,0A15.4,15.4,0,1,0,147.2,15.39,15.42,15.42,0,0,0,131.81,0Zm0,25.23a9.84,9.84,0,1,1,9.84-9.84A9.85,9.85,0,0,1,131.81,25.23Z"/><path class="cls-1" d="M75.25,93.43h0l-10-41.93h0a19.53,19.53,0,0,0-19.06-15H29.37a19.55,19.55,0,0,0-19.07,15h0L.3,93.43h0a11.22,11.22,0,0,0,8.3,13.48l2.76.65L8.44,119.82a2.32,2.32,0,0,0-.07.38,2.68,2.68,0,0,0,.05.94A2.72,2.72,0,0,0,9,122.25a2.79,2.79,0,0,0,.94.76,2.58,2.58,0,0,0,.92.27,2.36,2.36,0,0,0,.38,0h7v36.47a11.19,11.19,0,0,0,19.6,7.38,11.19,11.19,0,0,0,19.6-7.38V123.3h6.85a2.3,2.3,0,0,0,.37,0,2.86,2.86,0,0,0,.93-.27A2.76,2.76,0,0,0,67,121.14a2.68,2.68,0,0,0,0-.94c0-.13,0-.26-.07-.38L64.07,107.6l2.89-.69A11.21,11.21,0,0,0,75.25,93.43ZM35,123.32v36.54a5.63,5.63,0,0,1-11.26-.09V123.3H35Zm16.82,0v36.45a5.63,5.63,0,0,1-11.26.09V123.3H51.82Zm11-21.13L52.3,58.2l-5.41,1.29,13.87,58.25H14.64L28.52,59.49,23.11,58.2l-10.47,44-2.76-.65a5.63,5.63,0,0,1-4.17-6.78l10-41.95h0A14,14,0,0,1,29.37,42H46.19A14,14,0,0,1,59.84,52.76h0l10,41.94h0a5.63,5.63,0,0,1-4.17,6.78Z"/><path class="cls-1" d="M37.78,0A15.4,15.4,0,1,0,53.17,15.4,15.41,15.41,0,0,0,37.78,0Zm0,25.23a9.84,9.84,0,1,1,9.84-9.84A9.85,9.85,0,0,1,37.78,25.23Z"/></g></g></svg>