<svg xmlns="http://www.w3.org/2000/svg" viewBox="0 0 226.99 182.81"><defs><style>.cls-1{fill:#fff;}</style></defs><title>check</title><g id="Layer_2" data-name="Layer 2"><g id="Layer_1-2" data-name="Layer 1"><path class="cls-1" d="M84.7,182.81a18.06,18.06,0,0,1-12.82-5.31L5.29,110.91a18.17,18.17,0,0,1,0-25.63l24.1-24.1a18.16,18.16,0,0,1,25.62,0L85,91.14,172,5.27a18.18,18.18,0,0,1,25.62,0L221.68,29.4a18.11,18.11,0,0,1,0,25.62l0,0L97.5,177.52A18.06,18.06,0,0,1,84.7,182.81ZM42.2,64.89a9.07,9.07,0,0,0-6.45,2.66L11.66,91.64a9.16,9.16,0,0,0,0,12.91l66.58,66.59a9.15,9.15,0,0,0,12.92,0L215.33,48.65a9.13,9.13,0,0,0,0-12.89l-24.08-24.1a9.16,9.16,0,0,0-12.91,0l-90.25,89a4.5,4.5,0,0,1-6.34,0L48.65,67.55A9.09,9.09,0,0,0,42.2,64.89Zm176.3-13h0Z"/></g></g></svg>