<svg xmlns="http://www.w3.org/2000/svg" viewBox="0 0 147.66 172.71"><defs><style>.cls-1{fill:#fff;}</style></defs><title>nurse</title><g id="Layer_2" data-name="Layer 2"><g id="Layer_1-2" data-name="Layer 1"><path class="cls-1" d="M74.77,172.21c-12.21,0-21.61-6.61-30.95-14h-.46c-1.89,0-3.81.1-5.84.22s-4.09.23-6.14.23a27.52,27.52,0,0,1-9.87-1.5A29.24,29.24,0,0,1,6.82,144C2.07,135.58,1,125.56.68,118.75-.25,101.43,2.05,77.34,18.3,60.93c1.08-1.08,14.46-11.36,17.9-12.4-1.62-4.76-10.84-32-10.84-32l.28-.22C38.82,6.21,55.89.59,73.7.5h.43a89.68,89.68,0,0,1,34.46,7c.58.24,1.34.52,2.21.84,4.6,1.7,11.54,4.26,12.46,8,.31,1.26-.66,3.56-2,6.42-.4.88-.74,1.64-.9,2.12l-.91,2.71c-.56,1.68-1.13,3.37-1.7,5-.12.35-.49,1.24-1,2.47-1.22,3-4.94,12-4.52,13.1a6.17,6.17,0,0,0,.6.25l.44.18C125.23,54.83,136.1,66.82,141.66,80c6.52,15.41,5.94,32.26,4.78,48.19-.61,8.28-5,19.91-12.3,26.13-4.69,4-9.76,4.33-15.41,4.33h-4l-3.15,0c-3,0-6.07.06-9.1.2-5.72,9-17.76,13.22-27.22,13.36ZM25,104.54a31,31,0,0,0,.33,3.56c3,15.26,5.12,19.51,9,27.23.39.76.79,1.56,1.21,2.4,7.82,15.64,17,24.48,29.9,28.66a31.23,31.23,0,0,0,10,1.59A26.6,26.6,0,0,0,87,165.54c11.6-5.8,22.35-19.52,27.38-35,2.72-8.34,3.63-11.14,4-20.33a37.56,37.56,0,0,0-.19-7c-.31-.1-1-.26-1.74-.42-.93-.2-2.1-.47-3.4-.79C98.27,98.29,84.85,91,72,79.61c-2.46-2.17-4.2-3.63-4.81-4.1-.62.54-2.38,2.25-4.88,4.81A101.29,101.29,0,0,1,44.3,95,186.3,186.3,0,0,1,27,103.64Zm97,6.19c-.63,15.27-4.09,25.85-12.77,39.06l-2.88,4.42,10.17-.14,11-.19,2.88-2c6.16-4.27,10-11.56,12.43-23.64,1.41-7,1.38-26.3-.05-32.84-3.11-14.3-9.12-25-19.47-34.85-5.3-5-11.2-9.1-12.48-9.28A48.56,48.56,0,0,0,109,56c-.26.74-1.62,4.55-1.78,4.79l-.15.22h-.28c-.16,0-.43,0-6.65-3-7.88-3.78-14.57-6.13-23.54-6.13l-1.65,0H74.8c-7.93,0-19.57,2.3-28.45,8.76-.45.3-2.65,1.76-3.51,1.76a.64.64,0,0,1-.51-.22c-.38-.47-2.22-5.4-2.3-5.61-1.05-2.85-1.9-4.82-2.17-5.32-1.45.27-8.85,5.34-13.54,9.79C12.82,72,6.17,86.08,4.56,102.94,2.14,128.32,10,149.65,23.24,153.66a118.56,118.56,0,0,0,12.8.47c2.52,0,4,0,4.8-.11-.5-.74-1.54-2.19-3-4.16a87.52,87.52,0,0,1-15.73-38c-.88-6.15-1-6.55-1.62-6.55a40.54,40.54,0,0,0-4.91.92,22.74,22.74,0,0,1-4.14.67,1.06,1.06,0,0,1-.75-.21,1,1,0,0,1-.3-1c.22-.93,1.73-2,8.56-4.24,9.45-3.14,14.93-5.51,21-9A96.64,96.64,0,0,0,63.24,73.1L67,68.77l4.07,4C83.44,84.81,98.1,93.46,112.33,97.09a128,128,0,0,0,13.84,2.11c8.34.85,9.69,1.17,9.69,2.26s-1.27,1.34-7.23,1.34h-6.31ZM36.49,37.5c4.1,11,7.48,19,7.65,19.37l.08.12a42.58,42.58,0,0,0,3.7-2.13,51.59,51.59,0,0,1,26.71-7.3h.15c9.72.07,18.19,3.14,26.37,6.12,1.43.52,2.86,1,4.29,1.54,1.61-3.52,12.5-35.44,12.94-38-1.19-1.32-14.49-7.71-20.89-9.8A63,63,0,0,0,76,4.1H75.2c-1.13,0-2.32,0-3.55.05C61.84,4.44,58,5.06,49.9,7.67c-5.1,1.64-17,7.35-19.36,9.25L29.19,18ZM74.22,148.91a24.78,24.78,0,0,1-17.75-8.06c-2.2-2.32-2.92-3.44-2.86-4.43a2.29,2.29,0,0,1,.93-1.56,1.28,1.28,0,0,1,.86-.31h0c.78,0,1.57.53,3.57,2.34,4.59,4.15,8.12,5.71,13.51,6,.68,0,1.32,0,1.93,0,4.77,0,7.54-1,11.4-4.31,2.44-2.06,3.9-2.87,5.21-2.87a3.38,3.38,0,0,1,1.82.57,1,1,0,0,1,.52.76c.07.69-.48,1.45-2.7,3.7-4,4-8,6.7-11.54,7.56A20.74,20.74,0,0,1,74.22,148.91Zm.19-109.53a1.68,1.68,0,0,1-1.18-.51,1.72,1.72,0,0,1-.48-1.2V28.1H63.22a1.69,1.69,0,0,1-1.7-1.71,1.69,1.69,0,0,1,1.68-1.65h9.55V15.25A1.68,1.68,0,0,1,74,13.54h.41a1.74,1.74,0,0,1,1.25.55,1.67,1.67,0,0,1,.43,1.21v9.46h9.54a1.69,1.69,0,0,1,1.72,1.54,1.55,1.55,0,0,1,0,.22,1.68,1.68,0,0,1-1.68,1.6H76.11v9.58a1.69,1.69,0,0,1-1.67,1.7Z"/><path class="cls-1" d="M74.13,1A89.72,89.72,0,0,1,108.4,8c3.48,1.44,13.35,4.31,14.38,8.48.41,1.69-2.27,6.53-2.85,8.26-.87,2.58-1.73,5.17-2.61,7.75-.54,1.57-6.45,14.92-5.46,16a5.51,5.51,0,0,0,1.22.59c12.32,6.37,22.75,18.38,28.12,31.05,6.39,15.12,5.91,31.91,4.74,48-.64,8.83-5.3,19.95-12.13,25.78-4.64,4-9.64,4.21-15.08,4.21h-4c-4.18.06-8.36,0-12.53.25-5.36,8.71-17.15,13.21-26.94,13.35h-.46c-12.21,0-21.58-6.71-30.78-14h-.63c-3.86,0-8,.45-12,.45a27.59,27.59,0,0,1-9.7-1.46A28.71,28.71,0,0,1,7.26,143.79c-4.25-7.56-5.62-16.4-6.08-25.07C.09,98.45,3.84,76.25,18.66,61.29,20,59.92,34.49,49,36.65,49c.14,0,.23,0,.26.14L26,16.73C39.63,6.22,56.62,1.09,73.7,1h.43m-30,56.45c.44,0,1.37-.56,4-2.17a51.15,51.15,0,0,1,26.46-7.22h.15c11.46.08,21.06,4.34,30.88,7.77.79-.85,13.23-37.23,13.23-38.76,0-1-14.59-8-21.24-10.18A63.41,63.41,0,0,0,76,3.6h-.43c-1.25,0-2.59,0-4,0-9.93.29-13.87,1-21.88,3.54-5.19,1.67-17.16,7.4-19.53,9.34L28.6,17.86,36,37.68c4.08,10.91,7.53,19.2,7.67,19.42s.22.35.44.35M36,154.63c3.14,0,5.6-.08,5.6-.25s-1.54-2.33-3.39-4.82A87.33,87.33,0,0,1,22.6,111.79c-.91-6.44-1-7-2.11-7h0a39.22,39.22,0,0,0-5,.93,22.2,22.2,0,0,1-4,.66.68.68,0,0,1-.4-.07c-.89-.89,1.46-2.18,8.07-4.37,9.39-3.13,14.86-5.46,21-9.1A96.44,96.44,0,0,0,63.61,73.43L67,69.5l3.69,3.59c12.44,12.12,27.16,20.83,41.5,24.49a127.18,127.18,0,0,0,13.92,2.11c7.37.76,9.24,1.12,9.24,1.77s-1.13.84-6.73.84h-6.79l-.34,8.41c-.63,15.22-4.1,25.73-12.69,38.8l-3.39,5.21,11.11-.15,11.16-.19,3-2.07c6.28-4.34,10.19-11.81,12.64-23.95,1.42-7,1.39-26.43-.05-33-3.14-14.43-9.2-25.25-19.62-35.12-5-4.74-11.47-9.42-12.9-9.42a.32.32,0,0,0-.23.08,33.87,33.87,0,0,0-2,5c-.86,2.46-1.66,4.58-1.72,4.67h0c-.22,0-3-1.31-6.43-3-8.13-3.9-14.76-6.18-23.76-6.18l-1.66,0H74.8c-7.75,0-19.52,2.15-28.74,8.85a10.29,10.29,0,0,1-3.22,1.67.17.17,0,0,1-.13-.05c-.18-.22-1.18-2.68-2.21-5.45a46.08,46.08,0,0,0-2.31-5.56.34.34,0,0,0-.24-.1h0c-1.53.05-9.46,5.66-14,9.94-11.6,11-18.3,25.19-19.92,42.19-2.43,25.51,5.62,47.18,19,51.24,1,.3,7.85.5,12.94.5m39.38,13.85A26.81,26.81,0,0,0,87.22,166c12.22-6.09,22.74-20.22,27.64-35.26,2.75-8.45,3.65-11.23,4-20.46.18-4.35-.12-7.2-.29-7.37s-2.5-.59-5.41-1.33C98.53,97.84,85.06,90.47,72.37,79.23c-2.7-2.38-5-4.32-5.16-4.32A71.75,71.75,0,0,0,62,80,100.44,100.44,0,0,1,44,94.53a183.55,183.55,0,0,1-17.21,8.65l-2.36,1a36.48,36.48,0,0,0,.34,4C28.09,125,30.42,128.6,35.09,138c8.36,16.72,18.09,25,30.2,28.92a31.83,31.83,0,0,0,10.12,1.61M74.43,14h.06a1.17,1.17,0,0,1,1.12,1.23v10H85.7a1.18,1.18,0,0,1,1.18,1.08v.15A1.18,1.18,0,0,1,85.7,27.6H75.61V37.71a1.17,1.17,0,0,1-1.18,1.17h0a1.2,1.2,0,0,1-1.17-1.2V27.6H63.19a1.18,1.18,0,0,1,0-2.36h10v-10A1.18,1.18,0,0,1,74.14,14h.29m-19,121c.58,0,1.42.61,3.19,2.21,4.34,3.93,7.95,5.82,13.82,6.1.69,0,1.34,0,2,0,5,0,7.83-1.14,11.72-4.43,2.25-1.9,3.68-2.75,4.89-2.75a2.86,2.86,0,0,1,1.55.49c.69.44.25,1.13-2.26,3.69-3.91,4-8,6.6-11.31,7.43a20.5,20.5,0,0,1-4.79.57,24.3,24.3,0,0,1-17.39-7.9c-2.94-3.11-3.33-4.14-2-5.26a.78.78,0,0,1,.54-.2h.06M74.13,0h-.44C55.78.09,38.6,5.75,25.34,15.94l-.57.43.23.68L35.57,48.24C31.21,50.05,18.91,59.62,18,60.58,1.57,77.12-.76,101.36.18,118.78c.36,6.85,1.41,17,6.21,25.5a29.82,29.82,0,0,0,14.94,13.36,28.11,28.11,0,0,0,10.05,1.53c2.06,0,4.15-.12,6.17-.23s3.93-.22,5.81-.22h.28c9.37,7.4,18.82,14,31.13,14h.47c13.14-.19,23.18-6.78,27.5-13.37,2.93-.13,5.92-.16,8.81-.19l3.17,0h4c5.75,0,10.91-.34,15.73-4.45,7.39-6.31,11.87-18.09,12.48-26.47,1.16-16,1.74-32.91-4.82-48.43-5.69-13.44-16.38-25.23-28.58-31.55l-.49-.21-.3-.12c.11-1.9,3.39-9.86,4.5-12.56.54-1.29.89-2.14,1-2.51.57-1.67,1.13-3.35,1.69-5l.92-2.74c.16-.46.51-1.24.89-2.07,1.38-3.06,2.34-5.33,2-6.75-1-4-8.08-6.6-12.77-8.33-.88-.32-1.63-.6-2.2-.84A90.43,90.43,0,0,0,74.13,0ZM29.79,18.18l1.07-.87C33.15,15.43,45,9.77,50.05,8.14c8-2.58,11.86-3.2,21.61-3.49,1.29,0,2.51,0,3.7-.05h.82A62.17,62.17,0,0,1,97.34,7.85c6.31,2.06,18.52,8,20.49,9.5-.93,3.85-10.62,32.27-12.68,37.24-1.28-.45-2.55-.92-3.83-1.38-8.22-3-16.73-6.08-26.53-6.15h-.16a52.17,52.17,0,0,0-27,7.37c-1.48.89-2.63,1.58-3.22,1.88-.72-1.67-3.77-9.09-7.48-19L29.79,18.18ZM36,153.63a125.84,125.84,0,0,1-12.65-.45c-6.18-1.87-11.44-7.9-14.81-17C5.14,127,3.89,115.17,5.06,103c1.59-16.74,8.19-30.72,19.61-41.57,4.21-4,10.95-8.72,12.94-9.54.36.79,1.08,2.53,2,4.88A49.59,49.59,0,0,0,42,62.52a1.13,1.13,0,0,0,.89.4c.92,0,2.76-1.15,3.78-1.84C55.43,54.68,67,52.4,74.8,52.4h.12l1.67,0c8.87,0,15.51,2.33,23.33,6.08,6.31,3,6.56,3,6.86,3h.53l.31-.44c.23-.34,1.77-4.72,1.84-4.9.74-2.1,1.33-3.58,1.65-4.27,1.61.66,6.84,4.29,11.86,9,10.28,9.73,16.24,20.4,19.33,34.6,1.42,6.5,1.45,25.71,0,32.63-2.41,12-6.18,19.14-12.23,23.33l-2.75,1.89-10.86.19-9.23.13,2.37-3.64c8.73-13.29,12.22-23.94,12.85-39.31l.3-7.45h5.83c5.63,0,7.73,0,7.73-1.84,0-1.59-1.53-1.88-10.14-2.76a127.06,127.06,0,0,1-13.77-2.09C98.31,93,83.73,84.39,71.39,72.37l-3.68-3.59L66.94,68l-.69.81-3.39,3.93A96.21,96.21,0,0,1,39.65,92c-6.06,3.56-11.33,5.84-20.86,9-7.11,2.36-8.61,3.44-8.89,4.6a1.51,1.51,0,0,0,.44,1.43,1.44,1.44,0,0,0,1.1.36,23.24,23.24,0,0,0,4.26-.68,38.87,38.87,0,0,1,4.78-.91h0a39.88,39.88,0,0,1,1.09,6.12,88,88,0,0,0,15.83,38.22c1.06,1.45,1.91,2.61,2.48,3.42-.83,0-2.08.06-3.89.06ZM25.5,104.86l1.73-.76a186.34,186.34,0,0,0,17.33-8.72A101.61,101.61,0,0,0,62.71,80.67c2.14-2.2,3.76-3.78,4.54-4.5.78.62,2.37,2,4.46,3.81,12.87,11.4,26.36,18.78,41.23,22.55,1.3.33,2.47.59,3.41.8l1.41.33a43.47,43.47,0,0,1,.13,6.56c-.38,9.11-1.28,11.91-4,20.19-5,15.33-15.65,28.94-27.14,34.68a26,26,0,0,1-11.36,2.39,30.73,30.73,0,0,1-9.8-1.56C52.88,161.78,43.74,153,36,137.5c-.42-.84-.82-1.63-1.21-2.39-3.88-7.68-6-11.92-9-27.1a25.63,25.63,0,0,1-.3-3.15ZM74.43,13H74l-.1,0a2.18,2.18,0,0,0-1.64,2.23v9h-9a2.18,2.18,0,0,0,0,4.36h9.07v9.08a2.19,2.19,0,0,0,2.15,2.2,2.19,2.19,0,0,0,2.21-2.15V28.6H85.7a2.18,2.18,0,0,0,2.18-2.08,2.53,2.53,0,0,0,0-.28,2.19,2.19,0,0,0-2.17-2H76.61v-9A2.09,2.09,0,0,0,76,13.73,2.16,2.16,0,0,0,74.53,13Zm-19,121h-.09a1.8,1.8,0,0,0-1.15.43,2.7,2.7,0,0,0-1.11,1.91c-.08,1.31,1,2.64,3,4.81a25.29,25.29,0,0,0,18.12,8.21,21.23,21.23,0,0,0,5-.6c3.58-.88,7.76-3.62,11.78-7.7,2.22-2.25,2.94-3.17,2.83-4.11a1.47,1.47,0,0,0-.75-1.12,3.74,3.74,0,0,0-2.08-.65c-1.44,0-3,.84-5.54,3-3.75,3.17-6.44,4.19-11.07,4.19-.59,0-1.21,0-1.9,0-5.26-.25-8.71-1.78-13.2-5.84-1.93-1.74-2.89-2.47-3.86-2.47Z"/></g></g></svg>